<?xml version="1.0" encoding="utf-8"?>
<!-- Generator: Adobe Illustrator 19.0.0, SVG Export Plug-In . SVG Version: 6.00 Build 0)  -->
<svg version="1.1" id="Layer_1" xmlns="http://www.w3.org/2000/svg" xmlns:xlink="http://www.w3.org/1999/xlink" x="0px" y="0px"
	 width="382px" height="148.4250488px" viewBox="0 0 382 148.4250488" style="enable-background:new 0 0 382 148.4250488;"
	 xml:space="preserve">
<style type="text/css">
	.st0{fill:#f05537;}
	.st1{opacity:0.2;}
	.st2{fill:none;stroke:#f05537;stroke-width:5;stroke-miterlimit:10;}
</style>
<g id="XMLID_11_">
	<g id="XMLID_1_">
		<g id="XMLID_39_">
			<path id="XMLID_131_" class="st0" d="M148,59.4250488H0v-17h12.815918L77.8422852,0.000243l64.8374023,42.4248047H148V59.4250488
				z M5,54.4250488h138v-7h-1.8105469L77.8383789,5.9728994L14.3032227,47.4250488H5V54.4250488z"/>
		</g>
		<g id="XMLID_35_">
			<path id="XMLID_128_" class="st0" d="M77.9345703,45.5500488c-8.8569336,0-16.0625-7.2055664-16.0625-16.0625019
				s7.2055664-16.0625,16.0625-16.0625s16.0625,7.2055655,16.0625,16.0625S86.7915039,45.5500488,77.9345703,45.5500488z
				 M77.9345703,18.4250469c-6.1000977,0-11.0625,4.9624023-11.0625,11.0625s4.9624023,11.0625019,11.0625,11.0625019
				s11.0625-4.9624023,11.0625-11.0625019S84.034668,18.4250469,77.9345703,18.4250469z"/>
		</g>
		<g id="XMLID_37_">
			<path id="XMLID_125_" class="st0" d="M36,130.4250488H21v-76h15V130.4250488z M26,125.4250488h5v-66h-5V125.4250488z"/>
		</g>
		<g id="XMLID_40_">
			<path id="XMLID_122_" class="st0" d="M67,130.4250488H52v-76h15V130.4250488z M57,125.4250488h5v-66h-5V125.4250488z"/>
		</g>
		<g id="XMLID_41_">
			<path id="XMLID_119_" class="st0" d="M98,130.4250488H83v-76h15V130.4250488z M88,125.4250488h5v-66h-5V125.4250488z"/>
		</g>
		<g id="XMLID_42_">
			<path id="XMLID_116_" class="st0" d="M129,130.4250488h-15v-76h15V130.4250488z M119,125.4250488h5v-66h-5V125.4250488z"/>
		</g>
		<g id="XMLID_43_">
			<path id="XMLID_113_" class="st0" d="M141,139.4250488H10v-14h131V139.4250488z M15,134.4250488h121v-4H15V134.4250488z"/>
		</g>
		<g id="XMLID_45_">
			<path id="XMLID_110_" class="st0" d="M150,148.4250488H1v-14h149V148.4250488z M6,143.4250488h139v-4H6V143.4250488z"/>
		</g>
		<g id="XMLID_44_" class="st1">
			<g id="XMLID_55_">
				<circle id="XMLID_49_" class="st0" cx="74.6447906" cy="92.0500488" r="35.875"/>
			</g>
		</g>
	</g>
	<g id="XMLID_10_">
		<g id="XMLID_82_">
			<path id="XMLID_106_" class="st0" d="M380,59.4250488H232v-17h12.8164063L309.8427734,0.000243l64.8369141,42.4248047H380
				V59.4250488z M237,54.4250488h138v-7h-1.8105469L309.8388672,5.9728994l-63.5361328,41.4521484H237V54.4250488z"/>
		</g>
		<g id="XMLID_81_">
			<path id="XMLID_103_" class="st0" d="M309.9345703,45.5500488c-8.8564453,0-16.0625-7.2055664-16.0625-16.0625019
				s7.2060547-16.0625,16.0625-16.0625s16.0625,7.2055655,16.0625,16.0625S318.7910156,45.5500488,309.9345703,45.5500488z
				 M309.9345703,18.4250469c-6.0996094,0-11.0625,4.9624023-11.0625,11.0625s4.9628906,11.0625019,11.0625,11.0625019
				s11.0625-4.9624023,11.0625-11.0625019S316.0341797,18.4250469,309.9345703,18.4250469z"/>
		</g>
		<g id="XMLID_80_">
			<path id="XMLID_100_" class="st0" d="M268,130.4250488h-15v-76h15V130.4250488z M258,125.4250488h5v-66h-5V125.4250488z"/>
		</g>
		<g id="XMLID_79_">
			<path id="XMLID_97_" class="st0" d="M299,130.4250488h-15v-76h15V130.4250488z M289,125.4250488h5v-66h-5V125.4250488z"/>
		</g>
		<g id="XMLID_78_">
			<path id="XMLID_94_" class="st0" d="M330,130.4250488h-15v-76h15V130.4250488z M320,125.4250488h5v-66h-5V125.4250488z"/>
		</g>
		<g id="XMLID_77_">
			<path id="XMLID_91_" class="st0" d="M361,130.4250488h-15v-76h15V130.4250488z M351,125.4250488h5v-66h-5V125.4250488z"/>
		</g>
		<g id="XMLID_75_">
			<path id="XMLID_88_" class="st0" d="M373,139.4250488H242v-14h131V139.4250488z M247,134.4250488h121v-4H247V134.4250488z"/>
		</g>
		<g id="XMLID_74_">
			<path id="XMLID_53_" class="st0" d="M382,148.4250488H233v-14h149V148.4250488z M238,143.4250488h139v-4H238V143.4250488z"/>
		</g>
		<g id="XMLID_57_" class="st1">
			<g id="XMLID_86_">
				<circle id="XMLID_36_" class="st0" cx="306.6448059" cy="92.0500488" r="35.875"/>
			</g>
		</g>
	</g>
	<g id="XMLID_54_">
		<g id="XMLID_47_">
			<polyline id="XMLID_50_" class="st2" points="213.75,60.6750488 230.25,77.1750488 213.75,93.6750488 			"/>
			<line id="XMLID_46_" class="st2" x1="149" y1="76.9250488" x2="230" y2="76.9250488"/>
		</g>
		<g id="XMLID_48_">
			<polyline id="XMLID_52_" class="st2" points="168.5,128.9250488 152,112.3000488 168.375,95.9875488 			"/>
			<line id="XMLID_51_" class="st2" x1="233" y1="112.9250488" x2="152" y2="112.9250488"/>
		</g>
	</g>
</g>
</svg>
