<svg width="16" height="19" viewBox="0 0 16 19" fill="none" xmlns="http://www.w3.org/2000/svg">
<path d="M15.2344 4.83398L11.1328 3.75977L9.96094 0H1.17188C0.524648 0 0 0.480928 0 1.07422V17.2591C0 17.8524 0.524648 18.3333 1.17188 18.3333H14.0625C14.7097 18.3333 15.2344 17.8524 15.2344 17.2591V4.83398Z" fill="#59C36A"/>
<path d="M15.2344 4.83411V17.2592C15.2344 17.8525 14.7097 18.3335 14.0625 18.3335H7.711V0.00012207H9.96096L11.1328 3.75989L15.2344 4.83411Z" fill="#00A66C"/>
<path d="M15.2344 4.83496H11.1328C10.4883 4.83496 9.96094 4.35156 9.96094 3.76074V0.000976562C10.1133 0.000976562 10.2656 0.0546875 10.3711 0.162145L15.0586 4.45902C15.1758 4.55566 15.2344 4.69531 15.2344 4.83496Z" fill="#A0DEB0"/>
<path d="M4.22383 12.321C3.69716 12.321 3.26216 12.146 2.91883 11.796C2.5755 11.446 2.40383 11.0143 2.40383 10.501C2.40383 9.98431 2.5755 9.55264 2.91883 9.20598C3.26216 8.85598 3.69716 8.68098 4.22383 8.68098C4.5405 8.68098 4.83216 8.75598 5.09883 8.90598C5.36883 9.05264 5.57883 9.25264 5.72883 9.50598L5.13383 9.85098C5.04716 9.69431 4.92383 9.57264 4.76383 9.48598C4.60383 9.39598 4.42383 9.35098 4.22383 9.35098C3.88383 9.35098 3.60883 9.45764 3.39883 9.67098C3.19216 9.88431 3.08883 10.161 3.08883 10.501C3.08883 10.8376 3.19216 11.1126 3.39883 11.326C3.60883 11.5393 3.88383 11.646 4.22383 11.646C4.42383 11.646 4.60383 11.6026 4.76383 11.516C4.92716 11.426 5.0505 11.3043 5.13383 11.151L5.72883 11.496C5.57883 11.7493 5.3705 11.951 5.10383 12.101C4.83716 12.2476 4.54383 12.321 4.22383 12.321ZM7.3477 12.321C7.00103 12.321 6.70936 12.2443 6.4727 12.091C6.23603 11.9343 6.06936 11.7226 5.9727 11.456L6.5627 11.111C6.69936 11.4676 6.9677 11.646 7.3677 11.646C7.56103 11.646 7.7027 11.611 7.7927 11.541C7.8827 11.471 7.9277 11.3826 7.9277 11.276C7.9277 11.1526 7.8727 11.0576 7.7627 10.991C7.6527 10.921 7.45603 10.846 7.1727 10.766C7.01603 10.7193 6.8827 10.6726 6.7727 10.626C6.66603 10.5793 6.5577 10.5176 6.4477 10.441C6.34103 10.361 6.25936 10.261 6.2027 10.141C6.14603 10.021 6.1177 9.88098 6.1177 9.72098C6.1177 9.40431 6.22936 9.15264 6.4527 8.96598C6.67936 8.77598 6.95103 8.68098 7.2677 8.68098C7.55103 8.68098 7.79936 8.75098 8.0127 8.89098C8.22936 9.02764 8.3977 9.21931 8.5177 9.46598L7.9377 9.80098C7.7977 9.50098 7.57436 9.35098 7.2677 9.35098C7.12436 9.35098 7.01103 9.38431 6.9277 9.45098C6.8477 9.51431 6.8077 9.59764 6.8077 9.70098C6.8077 9.81098 6.8527 9.90098 6.9427 9.97098C7.03603 10.0376 7.2127 10.111 7.4727 10.191C7.57936 10.2243 7.65936 10.251 7.7127 10.271C7.76936 10.2876 7.84436 10.316 7.9377 10.356C8.03436 10.3926 8.1077 10.4276 8.1577 10.461C8.21103 10.4943 8.27103 10.5393 8.3377 10.596C8.40436 10.6526 8.45436 10.711 8.4877 10.771C8.52436 10.831 8.55436 10.9043 8.5777 10.991C8.60436 11.0743 8.6177 11.166 8.6177 11.266C8.6177 11.5893 8.49936 11.846 8.2627 12.036C8.02936 12.226 7.72436 12.321 7.3477 12.321ZM9.83508 12.251L8.66008 8.75098H9.41008L10.2651 11.441L11.1151 8.75098H11.8701L10.6901 12.251H9.83508Z" fill="white"/>
</svg>
