<?xml version="1.0" encoding="utf-8"?>
<!-- Generator: Adobe Illustrator 25.4.1, SVG Export Plug-In . SVG Version: 6.00 Build 0)  -->
<svg version="1.1" id="Layer_1" xmlns="http://www.w3.org/2000/svg" xmlns:xlink="http://www.w3.org/1999/xlink" x="0px" y="0px"
	 width="300px" height="300px" viewBox="0 0 300 300" style="enable-background:new 0 0 300 300;" xml:space="preserve">
<style type="text/css">
	.st0{fill:#f05537;}
</style>
<g>
	<path class="st0" d="M29.0181961,47.5337448l52.5745392-26.4820824c6.4641571-3.256031,14.0919266,1.442606,14.0919266,8.6804962
		v204.3358307c0,3.6711121-2.0684204,7.029007-5.347084,8.6804962l-52.5745392,26.482193
		c-6.4641571,3.2560425-14.0919456-1.4425659-14.0919456-8.680481V56.214241
		C23.671093,52.5431213,25.739521,49.1852303,29.0181961,47.5337448z"/>
	<path class="st0" d="M128.9441986,23.5018806l52.5745392,33.5765648c2.7959595,1.7856255,4.4880371,4.8739967,4.4880371,8.1914978
		v203.0366364c0,7.6766968-8.4811859,12.3234558-14.951004,8.1914978l-52.5745392-33.5766754
		c-2.7959442-1.7856293-4.4880295-4.8739929-4.4880295-8.1914825V31.6933804
		C113.9932022,24.0167007,122.4743805,19.3699512,128.9441986,23.5018806z"/>
	<path class="st0" d="M270.9818115,252.4661102l-52.5745392,26.482193
		c-6.4641571,3.2560425-14.0919342-1.4425964-14.0919342-8.680481V65.9318466c0-3.6711197,2.0684204-7.029007,5.3470917-8.6804962
		l52.5745392-26.4820805c6.4641724-3.256031,14.0919495,1.442606,14.0919495,8.6804981V243.785614
		C276.3289185,247.4567261,274.260498,250.814621,270.9818115,252.4661102z"/>
</g>
</svg>
