<?xml version="1.0" encoding="utf-8"?>
<!-- Generator: Adobe Illustrator 25.4.1, SVG Export Plug-In . SVG Version: 6.00 Build 0)  -->
<svg version="1.1" id="Layer_1" xmlns="http://www.w3.org/2000/svg" xmlns:xlink="http://www.w3.org/1999/xlink" x="0px" y="0px"
	 width="300px" height="300px" viewBox="0 0 300 300" style="enable-background:new 0 0 300 300;" xml:space="preserve">
<style type="text/css">
	.st0{fill:none;stroke:#f05537;stroke-width:20;stroke-linecap:round;stroke-linejoin:round;stroke-miterlimit:10;}
</style>
<g>
	<path id="XMLID_38_" class="st0" d="M240.0048065,60.378788H59.9951935c-12.2462311,0-22.1737633,9.9275322-22.1737633,22.1737633
		v0.0000458c0,12.2462311,9.9275322,22.1737671,22.1737633,22.1737671h180.009613
		c12.2462311,0,22.1737518-9.927536,22.1737518-22.1737671v-0.0000458
		C262.1785583,70.3063202,252.2510376,60.378788,240.0048065,60.378788z"/>
	<path id="XMLID_37_" class="st0" d="M233.1094513,104.7263641v148.4916382
		C233.1094513,268.0093079,221.1187439,280,206.3274536,280H93.6725311c-14.7912827,0-26.7819824-11.9906921-26.7819824-26.7819824
		V104.7263641"/>
	<g id="XMLID_31_">
		<path id="XMLID_36_" class="st0" d="M122.0567627,168.1094513v48.5074615V168.1094513z"/>
		<path id="XMLID_33_" class="st0" d="M177.9432373,168.1094513v48.5074615V168.1094513z"/>
	</g>
	<path id="XMLID_21_" class="st0" d="M111.5588226,58.4411736C111.5588226,37.210701,128.7695312,20,150,20
		s38.4411774,17.210701,38.4411774,38.4411736"/>
</g>
</svg>
