<?xml version="1.0" encoding="utf-8"?>
<!-- Generator: Adobe Illustrator 25.4.1, SVG Export Plug-In . SVG Version: 6.00 Build 0)  -->
<svg version="1.1" id="Layer_1" xmlns="http://www.w3.org/2000/svg" xmlns:xlink="http://www.w3.org/1999/xlink" x="0px" y="0px"
	 width="300px" height="300px" viewBox="0 0 300 300" style="enable-background:new 0 0 300 300;" xml:space="preserve">
<style type="text/css">
	.st0{fill:#f05537;}
</style>
<g>
	<path class="st0" d="M82.9556808,30.2423897c-2.7033234-2.6180096-5.7067032-4.7453136-8.901825-6.3780708
		c-0.3304138-0.1698475-0.664299-0.3336201-1.0003357-0.493742c-0.1625671-0.0769424-0.3249664-0.1539078-0.4884109-0.2283573
		c-0.4521866-0.2074146-0.9095917-0.4051304-1.3712387-0.5946865c-0.0464859-0.0189514-0.0928116-0.0382805-0.1393661-0.0570412
		c-4.3013153-1.7456799-9.000042-2.7099648-13.9204178-2.7099648c-4.9211349,0-9.6205788,0.9645939-13.9224396,2.7107925
		c-0.0448227,0.0180492-0.0894127,0.0366707-0.1341705,0.0549107c-0.4631462,0.1901207-0.9220428,0.3884315-1.3756294,0.5965328
		c-0.162468,0.0740261-0.3238983,0.1505642-0.4854889,0.2270298c-0.3369598,0.1605492-0.6717911,0.3247738-1.003109,0.4950943
		c-3.1939812,1.6322823-6.1963425,3.7588024-8.8989563,6.3756275c-0.1486416,0.1341972-0.2946968,0.2728062-0.4379063,0.4160175
		c-2.81563,2.8156738-5.0763741,5.9775162-6.7968884,9.3464203c-0.1662884,0.3237076-0.3267403,0.6508255-0.4837074,0.9799614
		c-0.0803337,0.1695404-0.1605721,0.3389359-0.2382011,0.5094452c-0.2041187,0.445282-0.3987503,0.895668-0.5855541,1.3501549
		c-0.0217972,0.0534134-0.0439739,0.106636-0.0655098,0.160099C20.9630051,47.3016205,20,51.9974594,20,56.914608
		c0,4.9185028,0.9635506,9.6155586,2.7080441,13.9155159c0.0202332,0.050209,0.0410805,0.1001587,0.0615234,0.1502991
		c0.1880627,0.4577866,0.3841171,0.9114685,0.5897522,1.3599319c0.0762539,0.1674194,0.1550941,0.3337631,0.2339573,0.5002594
		c0.1583881,0.332222,0.3203373,0.6623993,0.4882145,0.9891129c1.6332073,3.1969223,3.7613659,6.202034,6.380846,8.9067917
		c0.1122112,0.1242065,0.2293797,0.2454987,0.3478756,0.3659668c0.0226955,0.0228195,0.0434036,0.0468674,0.0661736,0.0696335
		c0.0000706,0.0000763,0.0001183,0.0001221,0.0001888,0.0001907c0.0000706,0.0000763,0.0001183,0.0001221,0.0001907,0.0001907
		c0.0208931,0.0208969,0.0429287,0.0398712,0.0638466,0.0606918c0.1223392,0.1205368,0.2456989,0.2394562,0.3719254,0.3535004
		c2.7053413,2.6199036,5.7111626,4.7482529,8.9088669,6.3814392c0.325058,0.1669998,0.6535301,0.3280869,0.9840202,0.485672
		c0.1679497,0.0795746,0.3357544,0.1590576,0.5046539,0.2359772c0.446846,0.2048492,0.8988914,0.4001923,1.3550186,0.5876083
		c0.0518456,0.0211639,0.1035042,0.0427246,0.1554222,0.0636215c4.2994347,1.7438965,8.9958191,2.7071152,13.9135666,2.7071152
		c4.9186707,0,9.61586-0.9636002,13.9159622-2.7081146c0.0499954-0.0201111,0.0997543-0.0408936,0.1496887-0.0612411
		c0.4580688-0.188179,0.9120026-0.3843231,1.3607559-0.5901108c0.1669922-0.0760574,0.3329086-0.154686,0.4989777-0.2333374
		c0.3325043-0.1585083,0.6629715-0.3205719,0.9899445-0.4885941c3.1960678-1.6327133,6.2003326-3.7601089,8.9044342-6.3785172
		c0.1485748-0.1341476,0.2945862-0.2727432,0.4377518-0.4159012c7.0175323-7.0177231,10.8824463-16.3429489,10.8824463-26.2578888
		c0-9.9151344-3.8649139-19.2403526-10.882637-26.2578888C83.2488861,30.5140076,83.103569,30.3759918,82.9556808,30.2423897z"/>
	<path class="st0" d="M155.5181274,75.0493469h106.3470764C271.864563,75.0493469,280,66.9139252,280,56.9145508
		s-8.135437-18.1348-18.1347961-18.1348H155.5181274c-9.9993744,0-18.1347961,8.1354256-18.1347961,18.1348
		S145.5187531,75.0493469,155.5181274,75.0493469z"/>
	<path class="st0" d="M261.7861328,131.7861328H134.8881836c-10.0429688,0-18.2138672,8.1708984-18.2138672,18.2138672
		s8.1708984,18.2138672,18.2138672,18.2138672h126.8979492C271.8291016,168.2138672,280,160.0429688,280,150
		S271.8291016,131.7861328,261.7861328,131.7861328z"/>
	<path class="st0" d="M261.7861328,227.8720703H134.8881836c-10.0429688,0-18.2138672,8.1699219-18.2138672,18.2128906
		s8.1708984,18.2138672,18.2138672,18.2138672h126.8979492c10.0429688,0,18.2138672-8.1708984,18.2138672-18.2138672
		S271.8291016,227.8720703,261.7861328,227.8720703z"/>
	<path class="st0" d="M70.0125656,137.1231079c-0.0000076-0.0000153-0.0000381-0.0000305-0.0000458-0.0000458
		c-0.0000153-0.0000153-0.0000381-0.0000305-0.0000458-0.0000458c-0.0000229-0.0000305-0.0000687-0.000061-0.0000916-0.0000763
		c-3.4414673-3.4414825-8.0145721-5.3368073-12.8768005-5.3368073c-4.8623085,0-9.4355011,1.895401-12.8770752,5.3368835
		c-0.0698814,0.0698853-0.1375542,0.1411285-0.203064,0.2136383c-1.2839928,1.3258057-2.3273315,2.7987366-3.1281013,4.3657074
		c-0.0831642,0.1618042-0.1633759,0.3253326-0.2417984,0.4898682c-0.0379524,0.0801849-0.0759201,0.1602783-0.1126518,0.2409058
		c-0.1014633,0.2211761-0.1981697,0.4449463-0.2909088,0.6707764c-0.0095482,0.023407-0.0192719,0.0467377-0.028717,0.0701752
		c-0.8558922,2.1091919-1.3286591,4.4132233-1.3286591,6.8259125c0,2.4128876,0.472847,4.7171021,1.3288803,6.8264618
		c0.0092583,0.0229797,0.0188065,0.0458374,0.0281601,0.0688019c0.0929489,0.2263489,0.189888,0.4506378,0.2915802,0.6723328
		c0.0364532,0.0800018,0.0741196,0.1595001,0.1117935,0.2390747c0.0787468,0.1652679,0.159317,0.3294983,0.2428436,0.4919891
		c0.8007126,1.5665741,1.8438873,3.0391235,3.1276131,4.364624c0.0654984,0.0725098,0.1331596,0.1437225,0.2030296,0.2136078
		c3.4415741,3.4416656,8.0146751,5.3369751,12.8770752,5.3369751s9.4355011-1.8953094,12.8770752-5.3369751
		c0.0023956-0.0024109,0.00457-0.0049286,0.0069656-0.0073242C73.456604,159.4289246,75.3494415,154.8589783,75.3494415,150
		c0-4.8622284-1.8953247-9.4353333-5.336792-12.8768005C70.012619,137.1231842,70.0125885,137.1231384,70.0125656,137.1231079z"/>
	<path class="st0" d="M69.8006668,233.0033875c-1.3260498-1.2841644-2.7992706-2.3276215-4.3665543-3.128479
		c-0.1618118-0.0831604-0.3253326-0.1633759-0.4898834-0.2417908c-0.0799789-0.0378418-0.1598816-0.0757141-0.2402878-0.1123505
		c-0.2215958-0.1016541-0.4457626-0.1985168-0.6719971-0.2914276c-0.0229416-0.0093384-0.0458031-0.0188751-0.068779-0.0281525
		c-2.1096802-0.8561707-4.4142799-1.3291168-6.8275833-1.3291168c-2.4131393,0-4.717598,0.4728699-6.8271637,1.328949
		c-0.0232201,0.0093536-0.0463104,0.0190125-0.0695076,0.0284424c-0.226059,0.0928345-0.4500694,0.1896515-0.6715012,0.291214
		c-0.080513,0.0366669-0.1605186,0.0746002-0.240612,0.1125183c-0.1643677,0.0783234-0.3277092,0.158432-0.4893341,0.2415009
		c-1.5673943,0.8008728-3.0407333,1.8443604-4.3668747,3.1286163c-0.0623894,0.056366-0.1233711,0.1151123-0.1838303,0.1747284
		c-0.0098076,0.0097504-0.0201492,0.0186462-0.0299339,0.0284424c-0.0000343,0.0000153-0.0000572,0.0000458-0.0000916,0.0000763
		c-0.0000343,0.0000458-0.0000572,0.0000763-0.0000916,0.0001068c-0.0163116,0.0162964-0.0311661,0.0335236-0.0474091,0.049881
		c-0.0527344,0.0540009-0.1053391,0.1080475-0.1555023,0.1635742c-1.2848778,1.3266449-2.3287735,2.8006287-3.1298676,4.3687286
		c-0.0823402,0.1602478-0.1617851,0.3221893-0.23946,0.4851379c-0.0386925,0.0816803-0.0773735,0.1632996-0.1147766,0.2454376
		c-0.100811,0.2198639-0.1969261,0.442276-0.289135,0.6667023c-0.0100861,0.0247498-0.0203934,0.0494232-0.0303726,0.0742035
		c-0.855587,2.1089783-1.3281555,4.412735-1.3281555,6.8250885c0,2.4113159,0.4721375,4.7141266,1.3270035,6.822403
		c0.0109367,0.0271912,0.0222321,0.0542297,0.0333061,0.0813599c0.0912514,0.2219543,0.1862984,0.4419403,0.2859726,0.6594238
		c0.0384941,0.0845337,0.078289,0.1685638,0.1181335,0.2526398c0.0765724,0.1605072,0.1548157,0.3200531,0.2359123,0.4779358
		c0.8013077,1.5692749,1.8456993,3.0443726,3.1314392,4.3718872c0.0501633,0.055542,0.1027679,0.1095886,0.1555023,0.1636047
		c0.016243,0.0163574,0.0310974,0.0335693,0.0474091,0.0498657c0.0000343,0.000061,0.0000572,0.000061,0.0000916,0.0000916
		s0.0000572,0.000061,0.0000916,0.0000916c0.0103416,0.0103455,0.0212555,0.0197449,0.0316086,0.0300598
		c0.0599136,0.059021,0.1203003,0.1172485,0.1821098,0.1730957c1.3270378,1.2851257,2.8014793,2.3291626,4.3700752,3.130249
		c0.15905,0.0817261,0.3197861,0.1605225,0.4815025,0.2376709c0.0827827,0.0392151,0.1655083,0.0783997,0.2487564,0.1163025
		c0.2185555,0.1002197,0.4396591,0.1957397,0.6627388,0.2874146c0.0262566,0.0107117,0.0524101,0.021637,0.078701,0.0322571
		c2.1085052,0.855072,4.4116173,1.3273621,6.8232651,1.3273621s4.7147598-0.47229,6.8232689-1.3273621
		c0.0262909-0.0106201,0.0524406-0.0215454,0.078701-0.0322571c0.2230759-0.0916748,0.4441833-0.1871948,0.6627426-0.2874146
		c0.0832443-0.0379028,0.1659698-0.0770874,0.2487488-0.1163025c0.1617203-0.0771484,0.3224564-0.1559448,0.4815063-0.2376709
		c1.5686493-0.8011475,3.0431366-1.8452148,4.3702164-3.1304016c0.0724869-0.0654907,0.1437149-0.1331482,0.2135773-0.2030029
		c3.44207-3.4421539,5.3377457-8.0160065,5.3377457-12.8791199s-1.8956757-9.4369659-5.3377457-12.8791199
		C69.9444504,233.1365967,69.8731918,233.0688934,69.8006668,233.0033875z"/>
</g>
</svg>
