<?xml version="1.0" encoding="utf-8"?>
<!-- Generator: Adobe Illustrator 25.4.1, SVG Export Plug-In . SVG Version: 6.00 Build 0)  -->
<svg version="1.1" id="Layer_1" xmlns="http://www.w3.org/2000/svg" xmlns:xlink="http://www.w3.org/1999/xlink" x="0px" y="0px"
	 width="300px" height="300px" viewBox="0 0 300 300" style="enable-background:new 0 0 300 300;" xml:space="preserve">
<style type="text/css">
	.st0{fill:#f05537;}
</style>
<g>
	<path class="st0" d="M239.6876831,198.8125458c-2.2704468-2.3803101-4.8013-4.7736359-7.1233826-7.7060394
		c-9.8282471-12.4108429-10.0823364-26.770752-10.5348206-35.3667603
		c-1.6673126-31.6777039-2.5009155-47.5165253-3.7624054-51.9214172
		c-8.06987-28.178772-32.0651855-47.2603378-49.0091553-52.4008255c-3.5651245-1.0816345-7.141861-1.7597466-10.2301025-2.1861763
		c4.2149506-2.8839836,6.9833984-7.7274055,6.9833984-13.2201042C166.0112152,27.1684666,158.8427582,20,150,20
		s-16.0112152,7.1684666-16.0112152,16.0112228c0,5.4926987,2.7684479,10.3360596,6.9833984,13.2200432
		c-3.0885468,0.4264908-6.6657104,1.1047897-10.2313232,2.1866074
		c-16.9438629,5.1409225-40.9381943,24.2222939-49.0079269,52.4004555
		c-1.2615051,4.404892-2.0951004,20.2437134-3.7624054,51.9214172c-0.4524841,8.5960846-0.7067032,22.9557953-10.5348282,35.3667603
		c-2.3220139,2.9324036-4.8528061,5.3257294-7.1233292,7.7059784c-1.0329132,0.7470245-11.1558189,8.3131561-10.8943787,20.1359711
		c0.2537804,11.480484,10.1940994,22.2185822,24.0794754,24.0795288c51.0016861,0,102.0033722,0,153.005127,0
		c13.885376-1.8610077,23.8256378-12.5990448,24.079422-24.0795288
		C250.8434448,207.1257629,240.7206116,199.5596313,239.6876831,198.8125458z M224.8090973,222.7945251H75.190834
		c-3.8168106-0.8729858-5.5265961-3.4905853-5.5444412-4.2955933c0.0589066-0.6200714,1.3418961-2.372467,2.5827179-3.3343201
		l1.4434738-1.0440216l1.2805176-1.3423309c0.5086823-0.5333099,1.032486-1.0669403,1.5639496-1.6090851
		c1.9510345-1.99086,4.3792038-4.4684906,6.7809372-7.5015869c13.3807755-16.8972473,14.3144608-35.598999,14.8161545-45.6461945
		l0.0620575-1.2217407c1.2723083-24.172287,2.280899-43.3357239,3.1023865-47.7354279
		c6.1207352-20.8665619,24.3096695-34.9387817,35.3367538-38.2843933C142.9302063,68.8638611,149.9332581,68.7442551,150,68.7442551
		s7.0694885,0.119545,13.3837433,2.0352631c11.0273743,3.3455505,29.2168121,17.4175262,35.3376617,38.284462
		c0.8215027,4.399765,1.8300781,23.563446,3.1025696,47.7392426l0.0618744,1.2184753
		c0.501709,10.0473328,1.4353943,28.7490692,14.8161621,45.6458893c2.4016724,3.0329132,4.8295288,5.5102844,6.7803192,7.5008545
		c0.5315857,0.54245,1.0555725,1.0761871,1.5644379,1.6096344l1.2802124,1.3422089l1.4412537,1.0423584
		c1.241684,0.9613495,2.526474,2.7157288,2.5852509,3.3386383
		C230.3357697,219.3041229,228.6259155,221.9215393,224.8090973,222.7945251z"/>
	<path class="st0" d="M149.999939,280c15.7923279,0,28.5944672-12.802124,28.5944672-28.5943451h-57.1888046
		C121.4056015,267.197876,134.2077332,280,149.999939,280z"/>
</g>
</svg>
