<?xml version="1.0" encoding="utf-8"?>
<!-- Generator: Adobe Illustrator 25.4.1, SVG Export Plug-In . SVG Version: 6.00 Build 0)  -->
<svg version="1.1" id="Layer_1" xmlns="http://www.w3.org/2000/svg" xmlns:xlink="http://www.w3.org/1999/xlink" x="0px" y="0px"
	 width="32px" height="32px" viewBox="0 0 32 32" style="enable-background:new 0 0 32 32;" xml:space="preserve">
<style type="text/css">
	.st0{fill:#F05537;}
</style>
<path class="st0" d="M6.3636365,0.1688312v1.3766234H0.8571429v30.2857151h30.2857132V1.5454545H25.636364V0.1688312h-2.7532463
	v1.3766234H9.1168833V0.1688312H6.3636365z M3.6103897,4.2987013h2.7532468v1.3766232h2.7532468V4.2987013h13.7662344v1.3766232
	h2.7532463V4.2987013h2.7532463v2.7532468H3.6103897V4.2987013z M3.6103897,9.8051949h24.7792206v19.272728H3.6103897V9.8051949z
	 M11.8701296,12.5584412v2.7532473h2.7532473v-2.7532473H11.8701296z M17.3766232,12.5584412v2.7532473h2.7532463v-2.7532473
	H17.3766232z M22.8831177,12.5584412v2.7532473h2.7532463v-2.7532473H22.8831177z M6.3636365,18.0649357v2.7532463h2.7532468
	v-2.7532463H6.3636365z M11.8701296,18.0649357v2.7532463h2.7532473v-2.7532463H11.8701296z M17.3766232,18.0649357v2.7532463
	h2.7532463v-2.7532463H17.3766232z M22.8831177,18.0649357v2.7532463h2.7532463v-2.7532463H22.8831177z M6.3636365,23.5714283
	v2.7532463h2.7532468v-2.7532463H6.3636365z M11.8701296,23.5714283v2.7532463h2.7532473v-2.7532463H11.8701296z
	 M17.3766232,23.5714283v2.7532463h2.7532463v-2.7532463H17.3766232z"/>
</svg>
