<?xml version="1.0" encoding="utf-8"?>
<!-- Generator: Adobe Illustrator 19.0.0, SVG Export Plug-In . SVG Version: 6.00 Build 0)  -->
<svg version="1.1" id="Capa_1" xmlns="http://www.w3.org/2000/svg" xmlns:xlink="http://www.w3.org/1999/xlink" x="0px" y="0px"
	 width="60.0285873px" height="16.1981907px" viewBox="14.7214127 503.4714355 60.0285873 16.1981907"
	 style="enable-background:new 14.7214127 503.4714355 60.0285873 16.1981907;" xml:space="preserve">
<style type="text/css">
	.st0{fill:#139AD6;}
	.st1{fill:#263B80;}
</style>
<g>
	<path class="st0" d="M55.284935,503.4714355h-4.6280594c-0.2722282,0-0.5444565,0.2722168-0.6805954,0.5444641
		l-1.9056435,11.9784851c0,0.2722168,0.1360931,0.4083862,0.4083672,0.4083862h2.4501419
		c0.2722282,0,0.4083672-0.1361694,0.4083672-0.4083862l0.5444565-3.4029541c0-0.2722168,0.2722282-0.5444946,0.6805916-0.5444946
		h1.4973221c3.1307411,0,4.9002914-1.4972839,5.3086548-4.4919434c0.2722282-1.2250671,0-2.3139954-0.5444984-2.9946289
		C58.0073509,503.8797913,56.7822571,503.4714355,55.284935,503.4714355 M55.8294373,507.9633484
		c-0.2722282,1.6334839-1.4973221,1.6334839-2.722374,1.6334839h-0.8167305l0.5444565-3.1307678
		c0-0.1361084,0.1361389-0.2722473,0.4083672-0.2722473h0.2722282c0.8167305,0,1.6334572,0,2.0418243,0.5444641
		C55.8294373,506.8743896,55.8294373,507.2827759,55.8294373,507.9633484"/>
	<g>
		<path class="st1" d="M21.9357319,503.4714355h-4.6280613c-0.2722282,0-0.5444775,0.2722168-0.6805916,0.5444641
			l-1.9056664,11.9784851c0,0.2722168,0.1361141,0.4083862,0.4083643,0.4083862h2.1778936
			c0.2722511,0,0.5444794-0.2722778,0.6806164-0.5444946l0.5444565-3.2668457c0-0.2722168,0.2722511-0.5444946,0.6806164-0.5444946
			h1.4972992c3.1307392,0,4.9002895-1.4972839,5.3086548-4.4919434c0.2722282-1.2250671,0-2.3140259-0.5444794-2.9946289
			C24.6581268,503.8797913,23.56917,503.4714355,21.9357319,503.4714355 M22.4802113,507.9633484
			c-0.2722511,1.6334839-1.4973221,1.6334839-2.7223949,1.6334839h-0.6805935l0.5444794-3.1307678
			c0-0.1361084,0.1361141-0.2722473,0.4083652-0.2722473h0.2722282c0.8167286,0,1.6334362,0,2.0418015,0.5444641
			C22.4802113,506.8743896,22.6163254,507.2827759,22.4802113,507.9633484"/>
		<path class="st1" d="M35.9560051,507.82724h-2.1778908c-0.136116,0-0.4083672,0.1361084-0.4083672,0.2722473l-0.1361122,0.680603
			l-0.136116-0.2722168c-0.5444794-0.6806335-1.4973011-0.9528809-2.5862579-0.9528809
			c-2.4501457,0-4.6280613,1.9057007-5.0364265,4.4919434c-0.2722282,1.3612061,0.136137,2.5862427,0.8167305,3.4030151
			c0.6805935,0.8166504,1.6334152,1.0889282,2.8584862,1.0889282c2.0418034,0,3.1307602-1.2250977,3.1307602-1.2250977
			l-0.1361351,0.680603c0,0.2722168,0.1361351,0.4083862,0.4083633,0.4083862h2.0417824
			c0.2722473,0,0.5444756-0.2722778,0.6806145-0.5444946l1.225071-7.6226807
			C36.3643723,508.0994873,36.092144,507.82724,35.9560051,507.82724 M32.8252678,512.1830444
			c-0.2722282,1.2250977-1.225071,2.1779175-2.5862579,2.1779175c-0.6805935,0-1.2250729-0.2722168-1.4973221-0.5444946
			c-0.2722282-0.4083252-0.4083443-0.9528198-0.4083443-1.6334229c0.136116-1.2250977,1.2250729-2.1779175,2.4501457-2.1779175
			c0.6805935,0,1.0889587,0.2722473,1.4972992,0.5445251C32.6891556,510.9580078,32.8252678,511.6386108,32.8252678,512.1830444"/>
	</g>
	<path class="st0" d="M69.1691208,507.82724h-2.1779175c-0.1360931,0-0.4083633,0.1361084-0.4083633,0.2722473l-0.1360931,0.680603
		l-0.1361389-0.2722168c-0.5444565-0.6806335-1.4972763-0.9528809-2.586235-0.9528809
		c-2.4501457,0-4.6280632,1.9057007-5.0364265,4.4919434c-0.2722282,1.3612061,0.1360931,2.5862427,0.8167305,3.4030151
		c0.6805916,0.8166504,1.6334152,1.0889282,2.8584633,1.0889282c2.0418205,0,3.1307411-1.2250977,3.1307411-1.2250977
		l-0.1360931,0.680603c0,0.2722168,0.1360931,0.4083862,0.4083633,0.4083862H67.80793
		c0.2722321,0,0.5444565-0.2722778,0.6805954-0.5444946l1.22509-7.6226807
		C69.5774841,508.0994873,69.4413452,507.82724,69.1691208,507.82724 M66.0383759,512.1830444
		c-0.2722244,1.2250977-1.22509,2.1779175-2.586277,2.1779175c-0.6805916,0-1.2250519-0.2722168-1.4973221-0.5444946
		c-0.2722282-0.4083252-0.4083214-0.9528198-0.4083214-1.6334229c0.1360931-1.2250977,1.2250519-2.1779175,2.4501457-2.1779175
		c0.6805916,0,1.0889549,0.2722473,1.4972801,0.5445251C66.0383759,510.9580078,66.1745148,511.6386108,66.0383759,512.1830444"/>
	<path class="st1" d="M47.7984085,507.82724h-2.3140526c-0.2722282,0-0.4083633,0.1361084-0.5444565,0.2722473l-2.9946442,4.6280518
		l-1.361187-4.3558044c-0.136116-0.2722473-0.2722282-0.4083862-0.6805954-0.4083862h-2.1779137
		c-0.2722282,0-0.4083443,0.2722473-0.4083443,0.5445251l2.4501457,7.2142944l-2.3140297,3.2668457
		c-0.136116,0.2722778,0,0.680603,0.2722282,0.680603h2.1779137c0.2722282,0,0.4083672-0.1361084,0.5444794-0.2722168
		l7.4865494-10.7534485C48.342865,508.2355957,48.0706367,507.82724,47.7984085,507.82724"/>
	<path class="st0" d="M71.7554016,503.8797913l-1.9056931,12.2507019c0,0.2722778,0.1361389,0.4083862,0.4083633,0.4083862
		h1.9056473c0.2722702,0,0.5445023-0.2722778,0.6806335-0.5444946L74.75,504.0158997
		c0-0.2722473-0.1360931-0.4083557-0.4083633-0.4083557H72.163765
		C72.027626,503.4714355,71.8914871,503.6075439,71.7554016,503.8797913"/>
</g>
</svg>
