<svg width="25" height="24" viewBox="0 0 25 24" fill="none" xmlns="http://www.w3.org/2000/svg">
<path d="M9.11426 18.3779V23.2176C9.11426 23.5556 9.33092 23.8551 9.65176 23.9616C9.73197 23.9876 9.81426 24.0002 9.89551 24.0002C10.1393 24.0002 10.3747 23.8854 10.5247 23.6809L13.3507 19.8284L9.11426 18.3779Z" fill="#f05537"/>
<path d="M24.6719 0.145135C24.4323 -0.0249509 24.1178 -0.0479073 23.8573 0.0887877L0.419838 12.3496C0.142755 12.4946 -0.020787 12.791 0.00212966 13.103C0.026088 13.416 0.23338 13.6832 0.528171 13.7844L7.0438 16.0153L20.9198 4.13016L10.1823 17.0891L21.1021 20.8278C21.1834 20.8549 21.2688 20.8696 21.3542 20.8696C21.4959 20.8696 21.6365 20.8309 21.7605 20.7558C21.9584 20.6348 22.0928 20.4313 22.1271 20.2028L24.9917 0.898523C25.0344 0.60635 24.9115 0.316265 24.6719 0.145135Z" fill="#f05537"/>
</svg>
