<svg width="24" height="24" viewBox="0 0 24 24" fill="none" xmlns="http://www.w3.org/2000/svg">
<path d="M7.16862 4.44531C6.23745 4.44531 5.48633 5.19865 5.48633 6.12679C5.48633 7.05493 6.23741 7.80859 7.16862 7.80859C8.09984 7.80859 8.84932 7.05526 8.84932 6.12679C8.84932 5.19832 8.09632 4.44531 7.16862 4.44531ZM20.5391 1H4.46094C3.10389 1 2 2.10389 2 3.46094V19.5391C2 20.8961 3.10389 22 4.46094 22H20.5391C21.8961 22 23 20.8961 23 19.5391V3.46094C23 2.10389 21.8961 1 20.5391 1ZM21.3594 19.5391C21.3594 19.9913 20.9913 20.3594 20.5391 20.3594H4.46094C4.00866 20.3594 3.64062 19.9913 3.64062 19.5391V3.46094C3.64062 3.00866 4.00866 2.64062 4.46094 2.64062H20.5391C20.9913 2.64062 21.3594 3.00866 21.3594 3.46094V19.5391ZM5.69173 18.3496H8.56283V9.08008H5.69173V18.3496ZM15.8761 8.91602C14.4793 8.91602 13.5418 9.61455 13.159 10.341H13.1563V9.08008H10.3672V18.3496H13.1563V13.7472C13.1563 12.5419 13.4631 11.3742 14.9571 11.3742C16.4308 11.3742 16.4786 12.7526 16.4786 13.8238V18.3497H19.3086V13.2499C19.3086 10.7616 18.783 8.91606 15.8761 8.91606V8.91602Z" fill="#f05537"/>
</svg>
