<svg width="24" height="24" viewBox="0 0 24 24" fill="none" xmlns="http://www.w3.org/2000/svg">
<path d="M11.4721 13.8667C11.4334 13.2305 11.1026 12.7535 10.5399 12.5214C8.1128 11.5156 6.98303 11.0385 6.09381 10.7248C5.73727 10.6001 5.36354 10.6216 5.04565 10.7935C4.77502 10.9397 4.40988 11.262 4.22946 11.9755C3.96742 13.007 3.90299 14.7477 4.17791 15.8438C4.34545 16.5014 4.88241 16.9269 5.4967 16.9269C5.59551 16.9269 5.69431 16.9183 5.79741 16.8925C6.13677 16.8151 9.74948 15.6632 10.4712 15.4311C11.1155 15.2291 11.515 14.5973 11.4721 13.8667ZM10.076 14.2062C8.44358 14.7263 5.76304 15.5773 5.51389 15.6374C5.50959 15.6374 5.45375 15.646 5.42368 15.53C5.22178 14.7177 5.24326 13.2048 5.47523 12.2936C5.5053 12.1732 5.53966 12.0916 5.56973 12.0357C5.5998 11.9798 5.62558 11.9497 5.64276 11.9368C5.64706 11.9368 5.65135 11.9368 5.65994 11.9411C6.57923 12.2678 7.86365 12.8093 10.0459 13.7119C10.1146 13.742 10.1748 13.7635 10.1833 13.9483C10.1919 14.0859 10.1533 14.1847 10.076 14.2062ZM12.0219 15.4354C11.4076 15.2764 10.8492 15.444 10.454 15.9125C8.07414 18.732 7.72189 19.1318 7.36535 19.6174C7.06035 20.0343 7.06035 20.4169 7.1162 20.6619C7.215 21.1218 7.58013 21.5215 8.22449 21.8825C8.85597 22.2349 9.53469 22.5229 10.2435 22.7335C10.7375 22.8797 11.2358 23 11.6869 23C12.0477 23 12.3785 22.9226 12.6491 22.7206C12.8811 22.5487 13.1603 22.2092 13.1646 21.5902C13.1689 20.3481 13.199 20.8381 13.1947 16.8581C13.1904 16.1919 12.7221 15.616 12.0219 15.4354ZM11.863 21.6977C11.7857 21.7235 11.5064 21.7708 10.6129 21.5043C9.99434 21.3195 9.40152 21.0702 8.85167 20.765C8.53379 20.5888 8.4221 20.4642 8.38773 20.4169C8.39203 20.4083 8.39632 20.3997 8.40491 20.3911C8.73569 19.9398 9.08794 19.5444 11.442 16.7506C11.4935 16.6905 11.5322 16.6432 11.704 16.6905C11.8329 16.7249 11.9059 16.7893 11.9059 16.871C11.9059 19.4971 11.8845 21.6031 11.863 21.6977ZM11.5666 1.02838C10.4239 0.822079 7.56725 1.78914 6.57064 2.35218C6.11959 2.60577 5.78881 3.01408 5.69001 3.43529C5.61269 3.75764 5.67283 4.0843 5.85325 4.35507C6.31719 5.04276 10.0416 11.1202 10.643 11.752C11.0253 12.1517 11.5666 12.3365 12.0949 12.2076C12.5975 12.083 12.9928 11.6918 13.1474 11.1589C13.388 10.3294 12.924 4.88373 12.7737 2.55849C12.7436 2.15877 12.6792 1.2261 11.5666 1.02838ZM11.9102 10.8021C11.893 10.8537 11.8587 10.9354 11.79 10.9526C11.7255 10.9698 11.6482 10.9311 11.5752 10.858C11.1155 10.368 7.47704 4.47972 6.96155 3.69317C6.99591 3.6373 7.07753 3.54274 7.20641 3.46968C8.24168 2.88514 10.7117 2.18026 11.3389 2.29201C11.399 2.30061 11.4291 2.3178 11.442 2.3221C11.4678 2.37797 11.4807 2.5413 11.485 2.64015C11.5451 3.45678 12.052 10.0586 11.9102 10.8021ZM20.9012 16.7764C20.6606 16.2091 20.0592 16.0071 19.6984 15.8867C18.3366 15.4311 16.9706 14.9798 15.6089 14.5285C14.9215 14.3008 14.2428 14.5414 13.8347 15.1561C13.4868 15.6847 13.4653 16.2865 13.7832 16.8108C14.8356 18.5386 15.5573 19.6905 15.8022 20.0945C16.2103 20.765 16.5668 21.341 17.2283 21.4484C17.2971 21.4613 17.3615 21.4656 17.426 21.4656C17.9157 21.4656 18.3238 21.1733 18.603 20.9455C19.3719 20.3051 20.3127 19.1103 20.7423 18.2206C20.9141 17.8681 21 17.5544 21 17.2707C21 17.0902 20.9656 16.9269 20.9012 16.7764ZM19.5824 17.6532C19.2259 18.3882 18.4183 19.4154 17.7782 19.9484C17.5806 20.1117 17.4732 20.1547 17.4388 20.1676C17.2369 20.0343 15.6905 17.4598 14.8872 16.136C14.8442 16.0673 14.8184 16.0028 14.9129 15.8609C15.0118 15.7148 15.0891 15.7062 15.2051 15.7449C19.3891 17.1332 19.5867 17.189 19.7113 17.2793C19.707 17.3266 19.6898 17.4383 19.5824 17.6532ZM14.9688 13.9956C15.0805 13.9956 15.1965 13.9827 15.3125 13.9612C15.4714 13.9268 19.8316 12.8179 19.8702 12.8093C20.3642 12.6804 20.6048 12.3795 20.7251 12.1474C20.9313 11.7434 20.9227 11.2319 20.7036 10.6689C20.3213 9.69325 19.4407 8.39094 18.6932 7.69895C18.3152 7.35081 17.8555 7.1617 17.426 7.18749C17.0737 7.20468 16.7687 7.35941 16.5324 7.62589C16.4852 7.67746 13.461 11.6231 13.3751 12.1388C13.2935 12.646 13.4782 13.1876 13.8605 13.5529C14.1655 13.8409 14.5564 13.9956 14.9688 13.9956ZM17.5033 8.4683C17.5505 8.4683 17.6751 8.50699 17.8169 8.64023C18.4183 9.19897 19.1915 10.3423 19.5008 11.1331C19.591 11.3609 19.5867 11.4984 19.5781 11.5457C19.5309 11.5629 15.1965 12.6632 15.0504 12.6976C14.9344 12.7191 14.8356 12.6933 14.754 12.6202C14.6939 12.56 14.6552 12.4784 14.6466 12.4053C15.0032 11.7864 17.2498 8.78636 17.5033 8.4683Z" fill="#f05537"/>
</svg>
