<svg width="24" height="24" viewBox="0 0 24 24" fill="none" xmlns="http://www.w3.org/2000/svg">
<path d="M19.0312 15.6667H16.9219C16.5336 15.6667 16.2188 15.995 16.2188 16.4C16.2188 16.805 16.5336 17.1333 16.9219 17.1333H18.2072C17.9169 17.9868 17.1354 18.6 16.2188 18.6C15.0556 18.6 14.1094 17.6131 14.1094 16.4C14.1094 15.1869 15.0556 14.2 16.2188 14.2C16.7822 14.2 17.3119 14.4288 17.7103 14.8444C17.9849 15.1307 18.4301 15.1307 18.7047 14.8444C18.9793 14.558 18.9792 14.0937 18.7047 13.8073C18.0406 13.1147 17.1578 12.7333 16.2188 12.7333C14.2802 12.7333 12.7031 14.3782 12.7031 16.4C12.7031 18.4218 14.2802 20.0667 16.2188 20.0667C18.1573 20.0667 19.7344 18.4218 19.7344 16.4C19.7344 15.995 19.4196 15.6667 19.0312 15.6667ZM23.9257 7.27205L21.5019 2.21611C21.1423 1.46601 20.4194 1 19.6153 1H4.38473C3.58064 1 2.85769 1.46601 2.49802 2.21611L0.0742031 7.27205C0.0254531 7.37379 0 7.49059 0 7.6C0 7.60508 0.000609375 7.62963 0.00084375 7.63471C0.0114844 8.81753 0.561234 9.8682 1.40625 10.5313V20.8C1.40625 22.0131 2.35252 23 3.51562 23H20.4844C21.6475 23 22.5938 22.0131 22.5938 20.8V10.5313C23.4624 9.84967 24 8.77509 24 7.6C24 7.48594 23.9723 7.36905 23.9257 7.27205ZM19.6153 2.46667C19.8833 2.46667 20.1243 2.62199 20.2442 2.87205L22.1592 6.86667H18.174L17.1193 2.46667H19.6153ZM12.7031 2.46667H15.6697L16.7245 6.86667H12.7031V2.46667ZM16.8478 8.33333C16.5576 9.18684 15.776 9.8 14.8594 9.8C13.9427 9.8 13.1352 9.17813 12.8317 8.33333H16.8478ZM8.28338 2.46667H11.2969V6.86667H7.22869L8.28338 2.46667ZM11.1683 8.33333C10.8648 9.17813 10.0588 9.8 9.14062 9.8C8.22244 9.8 7.44244 9.18684 7.15219 8.33333H11.1683ZM3.75586 2.87205C3.87572 2.62199 4.1167 2.46667 4.38473 2.46667H6.83381L5.77913 6.86667H1.84083L3.75586 2.87205ZM1.52719 8.33333H5.50402C5.21377 9.18684 4.43222 9.8 3.51558 9.8C2.59894 9.8 1.81744 9.18684 1.52719 8.33333ZM21.1875 20.8C21.1875 21.2044 20.8721 21.5333 20.4844 21.5333H3.51562C3.12792 21.5333 2.8125 21.2044 2.8125 20.8V11.1929C3.03975 11.2412 3.27487 11.2667 3.51562 11.2667C4.66444 11.2667 5.68617 10.6889 6.32812 9.79746C6.97008 10.6889 7.99181 11.2667 9.14062 11.2667C10.0795 11.2667 10.9687 10.8873 11.6443 10.1986C11.7742 10.0662 11.8928 9.9255 12 9.77785C12.1072 9.9255 12.2258 10.0662 12.3557 10.1986C13.0313 10.8873 13.9205 11.2667 14.8594 11.2667C16.0082 11.2667 17.03 10.6889 17.6719 9.79746C18.3138 10.6889 19.3356 11.2667 20.4844 11.2667C20.7251 11.2667 20.9602 11.2412 21.1875 11.1929V20.8ZM20.4844 9.8C19.5677 9.8 18.7862 9.18684 18.4959 8.33333H22.4728C22.1826 9.18684 21.401 9.8 20.4844 9.8Z" fill="#f05537"/>
</svg>
