<svg width="24" height="24" viewBox="0 0 24 24" fill="none" xmlns="http://www.w3.org/2000/svg">
<path d="M22.9466 8.17408C22.8974 7.05829 22.7169 6.29115 22.4583 5.62647C22.1916 4.92089 21.7813 4.28921 21.2438 3.76404C20.7185 3.23074 20.0825 2.81633 19.385 2.55385C18.7163 2.29536 17.9531 2.11495 16.8371 2.06571C15.7127 2.01233 15.3558 2 12.5041 2C9.65237 2 9.29543 2.01233 8.17523 2.06152C7.05922 2.11071 6.29193 2.29133 5.62724 2.54966C4.92137 2.81633 4.28956 3.22655 3.7643 3.764C3.23089 4.28912 2.81657 4.925 2.55387 5.6224C2.29541 6.29119 2.11493 7.05414 2.06572 8.16993C2.01233 9.29407 2 9.65095 2 12.5021C2 15.3532 2.01233 15.7101 2.06153 16.8301C2.11073 17.9459 2.29138 18.713 2.54989 19.3777C2.81661 20.0833 3.23089 20.715 3.76434 21.2402C4.28956 21.7735 4.92556 22.1879 5.62309 22.4503C6.29193 22.7088 7.05502 22.8892 8.1712 22.9385C9.29123 22.9878 9.64834 23 12.5 23C15.3517 23 15.7087 22.9878 16.8289 22.9385C17.9449 22.8893 18.7122 22.7088 19.3769 22.4503C20.7885 21.9047 21.9045 20.7889 22.4502 19.3777C22.7086 18.709 22.8892 17.9459 22.9385 16.8301C22.9877 15.7101 23 15.3532 23 12.5021C23 9.65095 22.9958 9.29407 22.9466 8.17408H22.9466ZM21.0551 16.748C21.0099 17.7736 20.8376 18.3274 20.694 18.6967C20.3411 19.6116 19.6148 20.3376 18.6998 20.6905C18.3305 20.8341 17.7726 21.0064 16.7508 21.0514C15.6429 21.1007 15.3107 21.1129 12.5082 21.1129C9.70568 21.1129 9.36925 21.1007 8.26541 21.0514C7.23962 21.0063 6.68571 20.834 6.31639 20.6905C5.86104 20.5222 5.44655 20.2556 5.11012 19.9069C4.76135 19.5664 4.49463 19.1561 4.32635 18.7008C4.18273 18.3316 4.01043 17.7736 3.96542 16.7522C3.91605 15.6446 3.90389 15.3122 3.90389 12.5103C3.90389 9.70832 3.91605 9.37199 3.96542 8.26848C4.01047 7.24289 4.18277 6.68908 4.32635 6.31984C4.49463 5.86441 4.76135 5.45016 5.11427 5.11363C5.45469 4.76493 5.86503 4.49826 6.32054 4.33018C6.68982 4.18659 7.24792 4.01432 8.26952 3.96915C9.37739 3.91996 9.70979 3.90763 12.5121 3.90763C15.3145 3.90763 15.651 3.91996 16.7549 3.96915C17.7807 4.01436 18.3346 4.18663 18.7039 4.33018C19.1593 4.49826 19.5738 4.76493 19.9102 5.11363C20.259 5.45415 20.5257 5.86441 20.694 6.31984C20.8376 6.68904 21.0099 7.24688 21.0551 8.26848C21.1043 9.37614 21.1166 9.70832 21.1166 12.5103C21.1166 15.3122 21.1043 15.6404 21.0551 16.748ZM18.113 5.63481C17.4174 5.63481 16.8534 6.19856 16.8534 6.89419C16.8534 7.58982 17.4174 8.15358 18.113 8.15358C18.8086 8.15358 19.3728 7.58966 19.3728 6.89419C19.3728 6.19873 18.8088 5.63481 18.113 5.63481ZM12.5041 7.10748C9.52528 7.10748 7.10842 9.52371 7.10842 12.5021C7.10842 15.4805 9.52528 17.8967 12.5041 17.8967C15.4829 17.8967 17.8997 15.4805 17.8997 12.5021C17.8997 9.52371 15.483 7.10748 12.5041 7.10748ZM12.5041 16.0015C10.5716 16.0015 9.00404 14.4344 9.00404 12.5021C9.00404 10.5698 10.5716 9.00274 12.5041 9.00274C14.4366 9.00274 16.0041 10.5698 16.0041 12.5021C16.0041 14.4344 14.4367 16.0015 12.5041 16.0015Z" fill="#f05537"/>
</svg>
