<svg width="24" height="24" viewBox="0 0 24 24" fill="none" xmlns="http://www.w3.org/2000/svg">
<path d="M19.5391 2H3.46094C2.10398 2 1 3.10398 1 4.46094V20.5391C1 21.896 2.10398 23 3.46094 23H19.5391C20.896 23 22 21.896 22 20.5391V4.46094C22 3.10398 20.896 2 19.5391 2ZM20.3594 20.5391C20.3594 20.9914 19.9914 21.3594 19.5391 21.3594H14.8633V14.6738H17.3976L17.8164 12.1309H14.8633V10.3672C14.8633 9.67095 15.3975 9.13672 16.0938 9.13672H17.7754V6.59375H16.0938C14.0051 6.59375 12.3212 8.28564 12.3212 10.3743V12.1309H9.85938V14.6738H12.3212V21.3594H3.46094C3.00862 21.3594 2.64062 20.9914 2.64062 20.5391V4.46094C2.64062 4.00862 3.00862 3.64062 3.46094 3.64062H19.5391C19.9914 3.64062 20.3594 4.00862 20.3594 4.46094V20.5391Z" fill="#f05537"/>
</svg>
