<?xml version="1.0" encoding="utf-8"?>
<!-- Generator: Adobe Illustrator 19.0.0, SVG Export Plug-In . SVG Version: 6.00 Build 0)  -->
<svg version="1.1" id="Layer_1" xmlns="http://www.w3.org/2000/svg" xmlns:xlink="http://www.w3.org/1999/xlink" x="0px" y="0px"
	 width="56.4716568px" height="18.3206177px" viewBox="-223.2358246 247.6793823 56.4716568 18.3206177"
	 style="enable-background:new -223.2358246 247.6793823 56.4716568 18.3206177;" xml:space="preserve">
<style type="text/css">
	.st0{fill:#2566AF;}
	.st1{fill:#E6A540;}
</style>
<g>
	<polygon class="st0" points="-198.754837,265.6946411 -203.362793,265.6946411 -200.4828796,247.995636 -195.8744354,247.995636 	
		"/>
	<path class="st0" d="M-207.2393036,247.995636l-4.3930359,12.1735229l-0.5198364-2.6214294l0.000473,0.000946l-1.5505066-7.9594421
		c0,0-0.1874847-1.5935974-2.1858673-1.5935974h-7.2625275l-0.0852203,0.2996826c0,0,2.2209015,0.4620819,4.8200684,2.0230103
		l4.0033875,15.37677h4.8011322l7.331192-17.6994629H-207.2393036L-207.2393036,247.995636z"/>
	<path class="st0" d="M-170.453186,247.995163h-3.7041779c-1.7105408,0-2.1271667,1.3190002-2.1271667,1.3190002
		l-6.8724213,16.3804779h4.8034973l0.9606018-2.6289978h5.8578491l0.5397186,2.6289978l0,0h4.2311096L-170.453186,247.995163z
		 M-176.0657959,259.4338989l2.4211578-6.6233978l1.3620758,6.6233978H-176.0657959z"/>
	<path class="st0" d="M-182.7966614,252.2518463l0.657608-3.800766c0,0-2.0291595-0.771698-4.1444855-0.771698
		c-2.2866974,0-7.7170258,0.9994202-7.7170258,5.8592682c0,4.572464,6.3734131,4.6292572,6.3734131,7.0310211
		s-5.7167511,1.971405-7.6034088,0.4568787l-0.6850586,3.9740295c0,0,2.0575562,0.9994202,5.2011871,0.9994202
		c3.144577,0,7.8884277-1.6281433,7.8884277-6.0595398c0-4.6018066-6.4307098-5.0302582-6.4307098-7.0310059
		C-189.2562408,250.9082336-184.7685242,251.1652985-182.7966614,252.2518463L-182.7966614,252.2518463z"/>
	<path class="st1" d="M-212.1517029,257.5481873l-1.5505066-7.9594269c0,0-0.1874847-1.5935974-2.1858673-1.5935974h-7.2625275
		l-0.0852203,0.2996826c0,0,3.4906616,0.7234192,6.8388062,3.4338531
		C-213.1956329,254.3193512-212.1517029,257.5481873-212.1517029,257.5481873z"/>
</g>
</svg>
